<mxfile host="app.diagrams.net" modified="2020-12-12T01:30:39.163Z" agent="5.0 (Macintosh; Intel Mac OS X 10_15_7) AppleWebKit/537.36 (KHTML, like Gecko) Chrome/87.0.4280.88 Safari/537.36" etag="tkH9Cc0gSsdMzTAIY8kI" version="14.0.0" type="github">
  <diagram id="S5eEwMXcLUr6fpw3NhH4" name="Page-1">
    <mxGraphModel dx="857" dy="527" grid="1" gridSize="10" guides="1" tooltips="1" connect="1" arrows="1" fold="1" page="1" pageScale="1" pageWidth="850" pageHeight="1100" math="0" shadow="0">
      <root>
        <mxCell id="0" />
        <mxCell id="1" parent="0" />
        <mxCell id="5pj_IPDi6Z-D3rLbhU2W-26" style="edgeStyle=none;rounded=0;orthogonalLoop=1;jettySize=auto;html=1;" parent="1" source="5pj_IPDi6Z-D3rLbhU2W-1" edge="1">
          <mxGeometry relative="1" as="geometry">
            <mxPoint x="60" y="270" as="targetPoint" />
          </mxGeometry>
        </mxCell>
        <mxCell id="5pj_IPDi6Z-D3rLbhU2W-50" style="edgeStyle=none;rounded=0;orthogonalLoop=1;jettySize=auto;html=1;" parent="1" source="5pj_IPDi6Z-D3rLbhU2W-1" target="5pj_IPDi6Z-D3rLbhU2W-39" edge="1">
          <mxGeometry relative="1" as="geometry" />
        </mxCell>
        <mxCell id="5pj_IPDi6Z-D3rLbhU2W-1" value="" style="whiteSpace=wrap;html=1;aspect=fixed;" parent="1" vertex="1">
          <mxGeometry x="80" y="160" width="80" height="80" as="geometry" />
        </mxCell>
        <mxCell id="5pj_IPDi6Z-D3rLbhU2W-3" style="edgeStyle=orthogonalEdgeStyle;rounded=0;orthogonalLoop=1;jettySize=auto;html=1;exitX=1;exitY=0.5;exitDx=0;exitDy=0;" parent="1" source="5pj_IPDi6Z-D3rLbhU2W-2" target="5pj_IPDi6Z-D3rLbhU2W-4" edge="1">
          <mxGeometry relative="1" as="geometry">
            <mxPoint x="320" y="250" as="targetPoint" />
          </mxGeometry>
        </mxCell>
        <mxCell id="5pj_IPDi6Z-D3rLbhU2W-2" value="User" style="text;html=1;strokeColor=none;fillColor=none;align=center;verticalAlign=middle;whiteSpace=wrap;rounded=0;" parent="1" vertex="1">
          <mxGeometry x="100" y="190" width="40" height="20" as="geometry" />
        </mxCell>
        <mxCell id="5pj_IPDi6Z-D3rLbhU2W-6" style="edgeStyle=orthogonalEdgeStyle;rounded=0;orthogonalLoop=1;jettySize=auto;html=1;exitX=0.5;exitY=1;exitDx=0;exitDy=0;" parent="1" source="5pj_IPDi6Z-D3rLbhU2W-4" target="5pj_IPDi6Z-D3rLbhU2W-7" edge="1">
          <mxGeometry relative="1" as="geometry">
            <mxPoint x="260" y="390" as="targetPoint" />
          </mxGeometry>
        </mxCell>
        <mxCell id="5pj_IPDi6Z-D3rLbhU2W-22" style="edgeStyle=none;rounded=0;orthogonalLoop=1;jettySize=auto;html=1;" parent="1" source="5pj_IPDi6Z-D3rLbhU2W-4" edge="1">
          <mxGeometry relative="1" as="geometry">
            <mxPoint x="400" y="220" as="targetPoint" />
          </mxGeometry>
        </mxCell>
        <mxCell id="5pj_IPDi6Z-D3rLbhU2W-49" style="edgeStyle=none;rounded=0;orthogonalLoop=1;jettySize=auto;html=1;" parent="1" source="5pj_IPDi6Z-D3rLbhU2W-4" target="5pj_IPDi6Z-D3rLbhU2W-36" edge="1">
          <mxGeometry relative="1" as="geometry" />
        </mxCell>
        <mxCell id="5pj_IPDi6Z-D3rLbhU2W-4" value="" style="ellipse;whiteSpace=wrap;html=1;aspect=fixed;" parent="1" vertex="1">
          <mxGeometry x="280" y="210" width="80" height="80" as="geometry" />
        </mxCell>
        <mxCell id="5pj_IPDi6Z-D3rLbhU2W-5" value="Review" style="text;html=1;strokeColor=none;fillColor=none;align=center;verticalAlign=middle;whiteSpace=wrap;rounded=0;" parent="1" vertex="1">
          <mxGeometry x="300" y="240" width="40" height="20" as="geometry" />
        </mxCell>
        <mxCell id="5pj_IPDi6Z-D3rLbhU2W-24" style="edgeStyle=none;rounded=0;orthogonalLoop=1;jettySize=auto;html=1;" parent="1" source="5pj_IPDi6Z-D3rLbhU2W-7" target="5pj_IPDi6Z-D3rLbhU2W-23" edge="1">
          <mxGeometry relative="1" as="geometry" />
        </mxCell>
        <mxCell id="5pj_IPDi6Z-D3rLbhU2W-52" style="edgeStyle=none;rounded=0;orthogonalLoop=1;jettySize=auto;html=1;" parent="1" source="5pj_IPDi6Z-D3rLbhU2W-7" target="5pj_IPDi6Z-D3rLbhU2W-35" edge="1">
          <mxGeometry relative="1" as="geometry" />
        </mxCell>
        <mxCell id="5pj_IPDi6Z-D3rLbhU2W-7" value="" style="rounded=0;whiteSpace=wrap;html=1;" parent="1" vertex="1">
          <mxGeometry x="200" y="360" width="130" height="60" as="geometry" />
        </mxCell>
        <mxCell id="5pj_IPDi6Z-D3rLbhU2W-8" value="Wine" style="text;html=1;strokeColor=none;fillColor=none;align=center;verticalAlign=middle;whiteSpace=wrap;rounded=0;" parent="1" vertex="1">
          <mxGeometry x="230" y="380" width="40" height="20" as="geometry" />
        </mxCell>
        <mxCell id="5pj_IPDi6Z-D3rLbhU2W-21" value="Attributes" style="text;html=1;strokeColor=none;fillColor=none;align=center;verticalAlign=middle;whiteSpace=wrap;rounded=0;" parent="1" vertex="1">
          <mxGeometry x="405" y="190" width="40" height="20" as="geometry" />
        </mxCell>
        <mxCell id="5pj_IPDi6Z-D3rLbhU2W-23" value="Attributes" style="text;html=1;strokeColor=none;fillColor=none;align=center;verticalAlign=middle;whiteSpace=wrap;rounded=0;" parent="1" vertex="1">
          <mxGeometry x="230" y="460" width="40" height="20" as="geometry" />
        </mxCell>
        <mxCell id="5pj_IPDi6Z-D3rLbhU2W-25" value="Attributes" style="text;html=1;strokeColor=none;fillColor=none;align=center;verticalAlign=middle;whiteSpace=wrap;rounded=0;" parent="1" vertex="1">
          <mxGeometry x="40" y="280" width="40" height="20" as="geometry" />
        </mxCell>
        <mxCell id="5pj_IPDi6Z-D3rLbhU2W-27" value="&lt;ul&gt;&lt;li&gt;Name of Wine&lt;/li&gt;&lt;li&gt;Rating (radio button)&lt;/li&gt;&lt;li&gt;Comment&amp;nbsp;&lt;/li&gt;&lt;li&gt;(buy again - radio button)&lt;/li&gt;&lt;/ul&gt;" style="text;strokeColor=none;fillColor=none;html=1;whiteSpace=wrap;verticalAlign=middle;overflow=hidden;" parent="1" vertex="1">
          <mxGeometry x="380" y="200" width="180" height="90" as="geometry" />
        </mxCell>
        <mxCell id="5pj_IPDi6Z-D3rLbhU2W-28" value="&lt;ul&gt;&lt;li&gt;Name&lt;/li&gt;&lt;li&gt;Year&lt;/li&gt;&lt;li&gt;Varietal&lt;/li&gt;&lt;li&gt;Wine-style(radio button)&lt;/li&gt;&lt;li&gt;Image URL (optional)&amp;nbsp;&lt;/li&gt;&lt;/ul&gt;" style="text;strokeColor=none;fillColor=none;html=1;whiteSpace=wrap;verticalAlign=middle;overflow=hidden;" parent="1" vertex="1">
          <mxGeometry x="195" y="470" width="180" height="100" as="geometry" />
        </mxCell>
        <mxCell id="5pj_IPDi6Z-D3rLbhU2W-29" value="&lt;ul&gt;&lt;li&gt;Display Name&lt;/li&gt;&lt;li&gt;Username&lt;/li&gt;&lt;li&gt;Email&lt;/li&gt;&lt;li&gt;Password&amp;nbsp;&lt;/li&gt;&lt;li&gt;Favorite Wine?&amp;nbsp;&lt;/li&gt;&lt;/ul&gt;" style="text;strokeColor=none;fillColor=none;html=1;whiteSpace=wrap;verticalAlign=middle;overflow=hidden;" parent="1" vertex="1">
          <mxGeometry x="20" y="290" width="140" height="90" as="geometry" />
        </mxCell>
        <mxCell id="5pj_IPDi6Z-D3rLbhU2W-35" value="&lt;ol&gt;&lt;li&gt;See a user&#39;s wines&lt;/li&gt;&lt;li&gt;Edit an individual wine&lt;/li&gt;&lt;li&gt;Add a wine&amp;nbsp;&lt;/li&gt;&lt;/ol&gt;" style="text;strokeColor=none;fillColor=none;html=1;whiteSpace=wrap;verticalAlign=middle;overflow=hidden;" parent="1" vertex="1">
          <mxGeometry x="362.5" y="360" width="165" height="90" as="geometry" />
        </mxCell>
        <mxCell id="5pj_IPDi6Z-D3rLbhU2W-36" value="&lt;ol&gt;&lt;li&gt;See all user&#39;s reviews&amp;nbsp;&lt;/li&gt;&lt;li&gt;Edit an individual review&lt;/li&gt;&lt;li&gt;Add a review&amp;nbsp;&lt;/li&gt;&lt;/ol&gt;" style="text;strokeColor=none;fillColor=none;html=1;whiteSpace=wrap;verticalAlign=middle;overflow=hidden;" parent="1" vertex="1">
          <mxGeometry x="387.5" y="80" width="165" height="90" as="geometry" />
        </mxCell>
        <mxCell id="5pj_IPDi6Z-D3rLbhU2W-37" value="Functions" style="text;html=1;strokeColor=none;fillColor=none;align=center;verticalAlign=middle;whiteSpace=wrap;rounded=0;" parent="1" vertex="1">
          <mxGeometry x="400" y="360" width="40" height="20" as="geometry" />
        </mxCell>
        <mxCell id="5pj_IPDi6Z-D3rLbhU2W-38" value="Functions" style="text;html=1;strokeColor=none;fillColor=none;align=center;verticalAlign=middle;whiteSpace=wrap;rounded=0;" parent="1" vertex="1">
          <mxGeometry x="425" y="60" width="40" height="20" as="geometry" />
        </mxCell>
        <mxCell id="5pj_IPDi6Z-D3rLbhU2W-39" value="&lt;ol&gt;&lt;li&gt;Add a user&lt;/li&gt;&lt;li&gt;See individual user(profile)&amp;nbsp;&lt;/li&gt;&lt;li&gt;edit profile? (optional)&amp;nbsp;&lt;/li&gt;&lt;/ol&gt;" style="text;strokeColor=none;fillColor=none;html=1;whiteSpace=wrap;verticalAlign=middle;overflow=hidden;" parent="1" vertex="1">
          <mxGeometry x="37.5" y="40" width="165" height="90" as="geometry" />
        </mxCell>
        <mxCell id="5pj_IPDi6Z-D3rLbhU2W-40" value="Functions" style="text;html=1;strokeColor=none;fillColor=none;align=center;verticalAlign=middle;whiteSpace=wrap;rounded=0;" parent="1" vertex="1">
          <mxGeometry x="50" y="20" width="40" height="20" as="geometry" />
        </mxCell>
      </root>
    </mxGraphModel>
  </diagram>
</mxfile>
